<svg width="21" height="16" viewBox="0 0 21 16" fill="none" xmlns="http://www.w3.org/2000/svg">
<path d="M9.46967 4.4696C9.76256 4.17671 10.2374 4.17671 10.5303 4.4696L13 6.93928L15.4697 4.46961C15.7626 4.17672 16.2374 4.17672 16.5303 4.46961C16.8232 4.7625 16.8232 5.23738 16.5303 5.53027L14.0607 7.99994L16.5303 10.4696C16.8232 10.7625 16.8232 11.2374 16.5303 11.5303C16.2374 11.8232 15.7626 11.8232 15.4697 11.5303L13 9.0606L10.5303 11.5303C10.2374 11.8232 9.76257 11.8232 9.46968 11.5303C9.17678 11.2374 9.17678 10.7625 9.46968 10.4696L11.9393 7.99994L9.46967 5.53026C9.17678 5.23737 9.17678 4.76249 9.46967 4.4696Z" fill="rgb(14, 182, 14)"/>
<path fill-rule="evenodd" clip-rule="evenodd" d="M7.40595 0.949951C6.25488 0.949951 5.16757 1.47859 4.45665 2.38388L0.895148 6.91912C0.396929 7.55355 0.39693 8.44635 0.895148 9.08078L4.45665 13.616C5.16758 14.5213 6.25488 15.05 7.40595 15.05H18.0526C19.5714 15.05 20.8026 13.8187 20.8026 12.3V3.69995C20.8026 2.18117 19.5714 0.949951 18.0526 0.949951H7.40595ZM5.63637 3.31031C6.06292 2.76714 6.71531 2.44995 7.40595 2.44995H18.0526C18.743 2.44995 19.3026 3.0096 19.3026 3.69995V12.3C19.3026 12.9903 18.743 13.55 18.0526 13.55H7.40595C6.71531 13.55 6.06292 13.2328 5.63637 12.6896L2.07486 8.15436C2.00369 8.06372 2.00369 7.93618 2.07486 7.84555L5.63637 3.31031Z" fill="rgb(14, 182, 14)"/>
</svg>
